<?xml version="1.0" encoding="UTF-8"?>
<svg version="1.1" xmlns="http://www.w3.org/2000/svg" width="225" height="224">
<path d="M0 0 C2.76569312 1.95934663 3.02568556 3.13800289 3.66015625 6.546875 C3.80728744 7.94660958 3.94095994 9.34781154 4.0625 10.75 C4.93002928 19.95783556 6.44470461 29.97439012 13.6875 36.375 C14.450625 36.91125 15.21375 37.4475 16 38 C16.33 38.66 16.66 39.32 17 40 C31.21820521 40.75718253 41.26803157 37.30505632 53.3828125 30.390625 C56 29 56 29 58 29 C58 28.34 58 27.68 58 27 C67.25057193 21.0333811 86.81753341 27.00685299 96.9375 28.53955078 C103.94878849 29.59895964 110.92930456 30.45541135 118 31 C118 31.66 118 32.32 118 33 C119.258125 33.0825 120.51625 33.165 121.8125 33.25 C129.15462092 34.07352383 137.96536626 36.29408176 143 42 C144.125 44.9375 144.125 44.9375 144 48 C138.84071342 54.77156363 131.55537219 57.46568086 123.5625 59.25 C122.83095703 59.42273438 122.09941406 59.59546875 121.34570312 59.7734375 C119.56609712 60.19216833 117.78335049 60.59751513 116 61 C115.375 59.125 115.375 59.125 115 57 C117.72863567 54.27136433 120.91006895 53.52914606 124.5 52.375 C125.18964844 52.14554688 125.87929687 51.91609375 126.58984375 51.6796875 C131.71888951 50 131.71888951 50 134 50 C134.33 49.34 134.66 48.68 135 48 C135.98020375 46.9805881 136.97803008 45.97753644 138 45 C131.24695413 41.71109143 124.65299618 39.50135128 117.3203125 38.00390625 C116.4991243 37.83409744 115.6779361 37.66428864 114.8318634 37.48933411 C106.34902704 35.78774637 97.81618191 34.5779275 89.23364258 33.50708008 C86.64165181 33.18174535 84.05241263 32.8385216 81.46289062 32.49414062 C79.79180153 32.28019399 78.12058192 32.06726367 76.44921875 31.85546875 C75.6867131 31.75348679 74.92420746 31.65150482 74.13859558 31.5464325 C66.44173128 30.61226565 62.29889439 31.56214259 56 36 C55.34 36 54.68 36 54 36 C53.505 36.99 53.505 36.99 53 38 C51.24368177 38.94394954 49.44409653 39.8085551 47.625 40.625 C46.64789063 41.07101563 45.67078125 41.51703125 44.6640625 41.9765625 C42 43 42 43 39 43 C38.505 43.99 38.505 43.99 38 45 C20.45426643 48.79367212 20.45426643 48.79367212 12.875 44.3125 C9.97931589 42.21337951 9.14966174 41.44898521 8 38 C7.34 38 6.68 38 6 38 C2.45065581 31.96611488 -0.02643102 26.82120192 -1.0625 19.8125 C-1.5998156 15.76973462 -1.5998156 15.76973462 -3 12 C-3.680625 12.9075 -4.36125 13.815 -5.0625 14.75 C-7.3827818 17.52396819 -9.74580173 19.2493118 -12.98046875 20.93359375 C-15.38986754 22.20586816 -17.68195784 23.63087153 -20 25.0625 C-23.9064328 27.42188984 -27.7536377 29.33837997 -32 31 C-32.66 30.34 -33.32 29.68 -34 29 C-34 27.68 -34 26.36 -34 25 C-32.97261719 24.52691406 -31.94523437 24.05382812 -30.88671875 23.56640625 C-19.87606309 18.36337871 -10.58505756 12.80826408 -3 3 C-2.01769502 1.9826127 -1.02530403 0.97403883 0 0 Z " fill="#FCFCFC" transform="translate(60,65)"/>
<path d="M0 0 C0 0.66 0 1.32 0 2 C0.99 2.33 1.98 2.66 3 3 C4.21885997 5.75360144 4.68873969 8.74823095 5.3125 11.6875 C5.50650391 12.49123047 5.70050781 13.29496094 5.90039062 14.12304688 C6.98373231 19.04842561 7.16966392 22.25433934 5 27 C0.98594958 27.57080739 -3.03395791 28.0436854 -7.0625 28.5 C-8.7630957 28.74363281 -8.7630957 28.74363281 -10.49804688 28.9921875 C-18.80252918 29.86379497 -18.80252918 29.86379497 -22.31567383 27.32958984 C-24.1032138 25.30188445 -25.58614884 23.30024653 -27 21 C-27.515625 20.21625 -28.03125 19.4325 -28.5625 18.625 C-29.47072455 13.17565268 -27.98225972 6.66226603 -25 2 C-17.47174594 -3.25679809 -8.30701588 -3.4976909 0 0 Z " fill="#FCFCFC" transform="translate(97,72)"/>
<path d="M0 0 C3.10398978 -0.08710289 6.20766548 -0.14042309 9.3125 -0.1875 C10.19357422 -0.21263672 11.07464844 -0.23777344 11.98242188 -0.26367188 C13.25375977 -0.27817383 13.25375977 -0.27817383 14.55078125 -0.29296875 C15.72120972 -0.31653442 15.72120972 -0.31653442 16.9152832 -0.34057617 C19.49903853 0.08152696 20.36292167 1.01489942 22 3 C22 2.34 22 1.68 22 1 C28.75297935 0.06594304 35.56007878 -0.77411991 42 2 C42.66 2.99 43.32 3.98 44 5 C42.625 7.5 42.625 7.5 41 10 C40.34 10 39.68 10 39 10 C39.66 11.98 40.32 13.96 41 16 C36.96153846 17.34615385 36.96153846 17.34615385 34 16 C30 10.77777778 30 10.77777778 30 8 C29.34 7.67 28.68 7.34 28 7 C28.33 6.67 28.66 6.34 29 6 C28.34 5.67 27.68 5.34 27 5 C26.9175 6.258125 26.835 7.51625 26.75 8.8125 C26.28635764 12.72231986 26.28635764 12.72231986 23.9375 15 C23.298125 15.33 22.65875 15.66 22 16 C21.34 15.67 20.68 15.34 20 15 C20 12.69 20 10.38 20 8 C19.34 10.31 18.68 12.62 18 15 C8.595 15.495 8.595 15.495 -1 16 C-3 12 -3 12 -2.125 8.25 C-1.75375 7.1775 -1.3825 6.105 -1 5 C0.65 5 2.3 5 4 5 C4 6.98 4 8.96 4 11 C6.64 11 9.28 11 12 11 C12.33 9.35 12.66 7.7 13 6 C7.06 5.01 7.06 5.01 1 4 C0.67 2.68 0.34 1.36 0 0 Z " fill="#FBFBFB" transform="translate(44,112)"/>
<path d="M0 0 C1.21236328 0.12568359 1.21236328 0.12568359 2.44921875 0.25390625 C3.51785156 0.35574219 4.58648437 0.45757812 5.6875 0.5625 C6.74324219 0.66691406 7.79898438 0.77132812 8.88671875 0.87890625 C11.82621915 0.99324064 14.14734952 0.62355699 17 0 C18.66965451 0.31802943 20.33678518 0.64984951 22 1 C22.99 0.67 23.98 0.34 25 0 C27.0625 0.9375 27.0625 0.9375 29 2 C29.66 2 30.32 2 31 2 C31.33 1.34 31.66 0.68 32 0 C32.556875 0.144375 33.11375 0.28875 33.6875 0.4375 C35.28375343 0.82577786 36.88910419 1.17782084 38.5 1.5 C40.68810019 1.93762004 42.8405419 2.44014049 45 3 C45.33 2.34 45.66 1.68 46 1 C48.64 1 51.28 1 54 1 C55.125 5.75 55.125 5.75 54 8 C52.07421875 9.32421875 52.07421875 9.32421875 49.6875 10.6875 C48.90761719 11.14511719 48.12773437 11.60273438 47.32421875 12.07421875 C44.68962214 13.1236295 43.6078186 12.98464547 41 12 C41 10.68 41 9.36 41 8 C39.68 7.67 38.36 7.34 37 7 C37 6.34 37 5.68 37 5 C36.38125 5.33 35.7625 5.66 35.125 6 C30.28524957 7.54872014 24.81907469 7.76836658 19.87890625 6.421875 C17.78498724 5.7766466 17.78498724 5.7766466 15 7.0625 C12 8 12 8 9.875 7.0625 C9.25625 6.711875 8.6375 6.36125 8 6 C6.10332891 6.28552357 6.10332891 6.28552357 4 7 C1.66905466 7.3496418 -0.66404762 7.68554487 -3 8 C-3.33 6.35 -3.66 4.7 -4 3 C-2.68 2.67 -1.36 2.34 0 2 C0 1.34 0 0.68 0 0 Z " fill="#FBFBFB" transform="translate(101,136)"/>
<path d="M0 0 C1.1446875 0.495 1.1446875 0.495 2.3125 1 C5.60813813 2.22628396 7.66657889 2.05334738 11.125 1.5 C22.54054054 0.02702703 22.54054054 0.02702703 27 3 C26.38125 3.763125 25.7625 4.52625 25.125 5.3125 C22.94402948 7.99625809 22.94402948 7.99625809 21 11 C17.55547211 12.47622624 14.58454175 11.73320172 11 11 C10.9175 11.61875 10.835 12.2375 10.75 12.875 C10 15 10 15 8.25 16.3125 C4.50615569 17.45645243 1.61527955 16.20509318 -2 15 C-3.24703266 11.25890201 -2.45460854 10.55570977 -1 7 C-0.6186926 4.67402489 -0.27539746 2.34087842 0 0 Z M5 5 C4.67 7.97 4.34 10.94 4 14 C6.76223278 11.23776722 6.57856291 8.79293383 7 5 C6.34 5 5.68 5 5 5 Z M13 5 C12.67 5.66 12.34 6.32 12 7 C14.97 7 17.94 7 21 7 C21 6.34 21 5.68 21 5 C18.36 5 15.72 5 13 5 Z " fill="#FBFBFB" transform="translate(89,112)"/>
<path d="M0 0 C0.33 0.66 0.66 1.32 1 2 C2.0725 1.773125 3.145 1.54625 4.25 1.3125 C8 1 8 1 10.4375 2.4375 C10.953125 2.953125 11.46875 3.46875 12 4 C11.2890625 5.921875 11.2890625 5.921875 10 8 C7.8359375 8.828125 7.8359375 8.828125 5.375 9.25 C4.55773437 9.39953125 3.74046875 9.5490625 2.8984375 9.703125 C1.95871094 9.85007813 1.95871094 9.85007813 1 10 C3.44038613 12.55489105 5.92115427 14.25254702 9 16 C8.67 16.66 8.34 17.32 8 18 C5.23723823 17.47731534 2.6739124 16.89130413 0 16 C-0.33 15.34 -0.66 14.68 -1 14 C-1.99 14.495 -1.99 14.495 -3 15 C-3.99 15.495 -3.99 15.495 -5 16 C-5.66 15.67 -6.32 15.34 -7 15 C-6.96519531 14.06027344 -6.96519531 14.06027344 -6.9296875 13.1015625 C-6.91164063 12.28429687 -6.89359375 11.46703125 -6.875 10.625 C-6.85179688 9.81289062 -6.82859375 9.00078125 -6.8046875 8.1640625 C-6.78629949 5.78657757 -6.78629949 5.78657757 -9 4 C-6.06279492 2.47700477 -3.0831351 1.19899698 0 0 Z M-3 5 C-3.33 5.66 -3.66 6.32 -4 7 C-3.34 7 -2.68 7 -2 7 C-2.33 6.34 -2.66 5.68 -3 5 Z " fill="#FBFBFB" transform="translate(89,128)"/>
<path d="M0 0 C-0.99 1.485 -0.99 1.485 -2 3 C-5.625 3.1875 -5.625 3.1875 -9 3 C-9.03738281 3.62648438 -9.07476562 4.25296875 -9.11328125 4.8984375 C-9.17902344 5.71570313 -9.24476563 6.53296875 -9.3125 7.375 C-9.37050781 8.18710938 -9.42851562 8.99921875 -9.48828125 9.8359375 C-10 12 -10 12 -13 14 C-13.99 14 -14.98 14 -16 14 C-17.0257259 9.58937864 -17.03684712 7.07369424 -15 3 C-17.31 3 -19.62 3 -22 3 C-21.67 1.68 -21.34 0.36 -21 -1 C-18.06294869 -1.22155127 -15.12619637 -1.42774197 -12.1875 -1.625 C-11.35412109 -1.68945312 -10.52074219 -1.75390625 -9.66210938 -1.8203125 C-8.45844727 -1.89765625 -8.45844727 -1.89765625 -7.23046875 -1.9765625 C-6.12288208 -2.05511475 -6.12288208 -2.05511475 -4.99291992 -2.13525391 C-3 -2 -3 -2 0 0 Z " fill="#FCFCFC" transform="translate(139,115)"/>
<path d="M0 0 C1.98 0.495 1.98 0.495 4 1 C3.67 1.66 3.34 2.32 3 3 C1.68 2.67 0.36 2.34 -1 2 C-0.67 1.34 -0.34 0.68 0 0 Z " fill="#FEFEFE" transform="translate(126,133)"/>
<path d="M0 0 C2 1 2 1 2 1 Z " fill="#FFFFFF" transform="translate(135,142)"/>
<path d="M0 0 C2 1 2 1 2 1 Z " fill="#FFFFFF" transform="translate(85,112)"/>
<path d="M0 0 C2 1 2 1 2 1 Z " fill="#FFFFFF" transform="translate(55,68)"/>
<path d="" fill="#FFFFFF" transform="translate(0,0)"/>
<path d="" fill="#FFFFFF" transform="translate(0,0)"/>
<path d="" fill="#FFFFFF" transform="translate(0,0)"/>
<path d="" fill="#FFFFFF" transform="translate(0,0)"/>
<path d="" fill="#FFFFFF" transform="translate(0,0)"/>
<path d="" fill="#FFFFFF" transform="translate(0,0)"/>
<path d="" fill="#FFFFFF" transform="translate(0,0)"/>
<path d="" fill="#FFFFFF" transform="translate(0,0)"/>
<path d="" fill="#FFFFFF" transform="translate(0,0)"/>
<path d="" fill="#FFFFFF" transform="translate(0,0)"/>
<path d="" fill="#FFFFFF" transform="translate(0,0)"/>
<path d="" fill="#FFFFFF" transform="translate(0,0)"/>
<path d="" fill="#FFFFFF" transform="translate(0,0)"/>
<path d="" fill="#FFFFFF" transform="translate(0,0)"/>
<path d="" fill="#FFFFFF" transform="translate(0,0)"/>
<path d="" fill="#FFFFFF" transform="translate(0,0)"/>
<path d="" fill="#FFFFFF" transform="translate(0,0)"/>
<path d="" fill="#FFFFFF" transform="translate(0,0)"/>
<path d="" fill="#FFFFFF" transform="translate(0,0)"/>
<path d="" fill="#FFFFFF" transform="translate(0,0)"/>
<path d="" fill="#FFFFFF" transform="translate(0,0)"/>
<path d="" fill="#FFFFFF" transform="translate(0,0)"/>
<path d="" fill="#FFFFFF" transform="translate(0,0)"/>
<path d="" fill="#FFFFFF" transform="translate(0,0)"/>
<path d="" fill="#FFFFFF" transform="translate(0,0)"/>
<path d="" fill="#FFFFFF" transform="translate(0,0)"/>
<path d="" fill="#FFFFFF" transform="translate(0,0)"/>
<path d="" fill="#FFFFFF" transform="translate(0,0)"/>
<path d="" fill="#FFFFFF" transform="translate(0,0)"/>
<path d="" fill="#FFFFFF" transform="translate(0,0)"/>
<path d="" fill="#FFFFFF" transform="translate(0,0)"/>
<path d="" fill="#FFFFFF" transform="translate(0,0)"/>
<path d="" fill="#FFFFFF" transform="translate(0,0)"/>
<path d="" fill="#FFFFFF" transform="translate(0,0)"/>
<path d="" fill="#FFFFFF" transform="translate(0,0)"/>
<path d="" fill="#FFFFFF" transform="translate(0,0)"/>
<path d="" fill="#FFFFFF" transform="translate(0,0)"/>
<path d="" fill="#FFFFFF" transform="translate(0,0)"/>
<path d="" fill="#FFFFFF" transform="translate(0,0)"/>
<path d="" fill="#FFFFFF" transform="translate(0,0)"/>
<path d="" fill="#FFFFFF" transform="translate(0,0)"/>
<path d="" fill="#FFFFFF" transform="translate(0,0)"/>
<path d="" fill="#FFFFFF" transform="translate(0,0)"/>
<path d="" fill="#FFFFFF" transform="translate(0,0)"/>
<path d="" fill="#FFFFFF" transform="translate(0,0)"/>
<path d="" fill="#FFFFFF" transform="translate(0,0)"/>
<path d="" fill="#FFFFFF" transform="translate(0,0)"/>
</svg>
